# xmcd CD database file
#
# Track frame offsets:
#	150
#	9805
#	19620
#	32467
#	43357
#	52850
#	64997
#	75975
#	86505
#	101215
#	111292
#	123882
#
# Disc length: 1797 seconds
#
# Revision: 2
# Processed by: cddbd v1.5.2PL0 Copyright (c) Steve Scherf et al.
# Submitted via: CDex 1.51
#
DISCID=8807030c
DTITLE=James Brown - Papa's Got A Brand New Bag
DYEAR=1965
DGENRE=Funk
TTITLE0=Papa's Got A Brand New Bag (Part 1)
TTITLE1=Papa's Got A Brand New Bag (Part 2) (Instrumental)
TTITLE2=Mashed Potates, U.S.A.
TTITLE3=Cross Firing (Instrumental)
TTITLE4=Love Don't Love Nobody
TTITLE5=I Stay In The Chapel Every Night
TTITLE6=And I Do Just What I Want
TTITLE7=This Old Heart
TTITLE8=Baby, You're Right
TTITLE9=Have Marcy Baby
TTITLE10=You Don't Have To Go
TTITLE11=Doin' The Limbo
EXTD=YEAR: 1965
EXTT0=
EXTT1=
EXTT2=
EXTT3=
EXTT4=
EXTT5=
EXTT6=
EXTT7=
EXTT8=
EXTT9=
EXTT10=
EXTT11=
PLAYORDER=
